<?xml version="1.0" encoding="utf-8"?>
<!-- Generator: Adobe Illustrator 21.0.2, SVG Export Plug-In . SVG Version: 6.00 Build 0)  -->
<svg version="1.1" id="Layer_1" xmlns="http://www.w3.org/2000/svg" xmlns:xlink="http://www.w3.org/1999/xlink" x="0px" y="0px"
	 viewBox="0 0 50 39.5" style="enable-background:new 0 0 50 39.5;" xml:space="preserve">
<style type="text/css">
	.st0{fill:#FFFFFF;}
</style>
<g>
	<path class="st0" d="M-7.2,4.2h-46.5c-0.8,0-1.5-0.7-1.5-1.5s0.7-1.5,1.5-1.5h46.5c0.8,0,1.5,0.7,1.5,1.5S-6.4,4.2-7.2,4.2z"/>
</g>
<g>
	<path class="st0" d="M-5.7,11.1c0-0.8-0.7-1.5-1.5-1.5h-46.5c-0.8,0-1.5,0.7-1.5,1.5s0.7,1.5,1.5,1.5h46.5
		C-6.4,12.6-5.7,12-5.7,11.1z"/>
</g>
<g>
	<path class="st0" d="M-5.7,19.5c0-0.8-0.7-1.5-1.5-1.5h-46.5c-0.8,0-1.5,0.7-1.5,1.5s0.7,1.5,1.5,1.5h46.5
		C-6.4,21-5.7,20.3-5.7,19.5z"/>
</g>
<g>
	<g>
		<path class="st0" d="M-43.3,36.9c-0.5,0.2-0.8,0.4-1,0.6l0.2,1.4h4l0.2-1.4c-0.2-0.2-0.5-0.4-1-0.6v-8c0.5-0.2,0.8-0.4,1-0.6
			l-0.2-1.3H-44l-2.4,7c-0.4,0.9-0.6,1.7-0.6,2.4h-0.2l-0.1-0.3c-0.1-0.6-0.3-1.3-0.6-2.1l-2.5-7h-4l-0.2,1.3c0.2,0.3,0.5,0.5,1,0.6
			v8.1c-0.4,0.2-0.8,0.4-1,0.6l0.2,1.3h3.4l0.2-1.3c-0.2-0.3-0.5-0.5-1-0.6v-4.6c0-0.7-0.1-1.5-0.2-2.6l0.2,0l0.1,0.4
			c0.2,0.8,0.4,1.4,0.6,2l2.4,6.8h2.3l2.3-6.8c0.2-0.6,0.4-1.4,0.7-2.4l0.2,0l0,0.4c-0.1,1-0.1,1.7-0.1,2.2V36.9z"/>
	</g>
	<g>
		<path class="st0" d="M-30.5,35.9l-1.3-0.2c-0.3,0.3-0.5,0.7-0.6,1.3h-2.9v-3.3h2.4c0.1,0.4,0.3,0.6,0.4,0.7l1.1-0.1v-3.1l-1.1-0.1
			c-0.2,0.1-0.3,0.4-0.4,0.7h-2.4v-3h2.7c0.2,0.6,0.4,1.1,0.6,1.3l1.3-0.2v-3h-8l-0.2,1.4c0.2,0.2,0.5,0.4,1,0.6v8
			c-0.5,0.2-0.8,0.4-1,0.6l0.2,1.4h8.1V35.9z"/>
	</g>
	<g>
		<path class="st0" d="M-26.8,29.8l0.2-0.1l0.1,0.4c0.2,0.8,0.5,1.5,0.8,2l3.5,6.8h2.7v-10c0.4-0.2,0.7-0.4,1-0.7l-0.2-1.3h-3.4
			l-0.2,1.3c0.2,0.3,0.5,0.5,1,0.7v4.5c0,0.7,0.1,1.5,0.2,2.5l-0.2,0.1l-0.1-0.4c-0.2-0.8-0.5-1.5-0.8-2l-3.5-6.8h-3.6l-0.2,1.3
			c0.2,0.3,0.5,0.5,1,0.6v8.1c-0.4,0.2-0.8,0.4-1,0.6l0.2,1.3h3.4l0.2-1.3c-0.2-0.3-0.5-0.5-1-0.6v-4.6
			C-26.5,31.6-26.6,30.8-26.8,29.8z"/>
	</g>
	<g>
		<path class="st0" d="M-8.3,34.5v-5.6c0.5-0.2,0.8-0.4,1-0.6l-0.2-1.4h-3.8l-0.2,1.4c0.2,0.2,0.5,0.4,1,0.6v5.7
			c0,0.8-0.1,1.4-0.4,1.8c-0.3,0.4-0.8,0.6-1.5,0.6c-0.7,0-1.2-0.2-1.5-0.6c-0.3-0.4-0.4-1-0.4-1.9v-5.7c0.5-0.2,0.8-0.4,1-0.6
			l-0.2-1.4h-4.1l-0.2,1.4c0.2,0.2,0.5,0.4,1,0.6v5.6c0,1.5,0.3,2.7,0.9,3.4c0.6,0.7,1.7,1.1,3.3,1.1c1.5,0,2.7-0.4,3.4-1.1
			C-8.6,37.2-8.3,36.1-8.3,34.5z"/>
	</g>
</g>
<g>
	<path class="st0" d="M40.7,35.1l-10-10.9c2.2-2.3,3.5-5.4,3.5-8.7c0-3.4-1.3-6.5-3.7-8.9S25,3,21.6,3s-6.5,1.3-8.9,3.7
		s-3.7,5.5-3.7,8.9s1.3,6.5,3.7,8.9s5.5,3.7,8.9,3.7c2.9,0,5.6-1,7.9-2.8l10,10.9c0.2,0.2,0.4,0.3,0.6,0.3c0.2,0,0.4-0.1,0.6-0.2
		C41,36,41,35.4,40.7,35.1L40.7,35.1z M10.8,15.6c0-6,4.9-10.9,10.9-10.9s10.9,4.9,10.9,10.9s-4.9,10.9-10.9,10.9
		S10.8,21.6,10.8,15.6z"/>
</g>
</svg>
